<?xml version="1.0" encoding="utf-8" standalone="no"?>
<!DOCTYPE svg PUBLIC "-//W3C//DTD SVG 1.1//EN"
  "http://www.w3.org/Graphics/SVG/1.1/DTD/svg11.dtd">
<svg xmlns:xlink="http://www.w3.org/1999/xlink" width="1152pt" height="288pt" viewBox="0 0 1152 288" xmlns="http://www.w3.org/2000/svg" version="1.1">
 <metadata>
  <rdf:RDF xmlns:dc="http://purl.org/dc/elements/1.1/" xmlns:cc="http://creativecommons.org/ns#" xmlns:rdf="http://www.w3.org/1999/02/22-rdf-syntax-ns#">
   <cc:Work>
    <dc:type rdf:resource="http://purl.org/dc/dcmitype/StillImage"/>
    <dc:date>1980-01-01T00:00:00+00:00</dc:date>
    <dc:format>image/svg+xml</dc:format>
    <dc:creator>
     <cc:Agent>
      <dc:title>Matplotlib v3.10.1, https://matplotlib.org/</dc:title>
     </cc:Agent>
    </dc:creator>
   </cc:Work>
  </rdf:RDF>
 </metadata>
 <defs>
  <style type="text/css">*{stroke-linejoin: round; stroke-linecap: butt}</style>
 </defs>
 <g id="figure_1">
  <g id="patch_1">
   <path d="M 0 288 
L 1152 288 
L 1152 0 
L 0 0 
z
" style="fill: #ffffff"/>
  </g>
  <g id="axes_1">
   <g id="patch_2">
    <path d="M 144 256.32 
L 1036.8 256.32 
L 1036.8 34.56 
L 144 34.56 
z
" style="fill: #ffffff"/>
   </g>
   <g id="matplotlib.axis_1">
    <g id="xtick_1">
     <g id="line2d_1">
      <defs>
       <path id="m886293a873" d="M 0 0 
L 0 3.5 
" style="stroke: #000000; stroke-width: 0.8"/>
      </defs>
      <g>
       <use xlink:href="#m886293a873" x="184.581818" y="256.32" style="stroke: #000000; stroke-width: 0.8"/>
      </g>
     </g>
     <g id="text_1">
      <!-- 0 -->
      <g transform="translate(181.400568 270.918437) scale(0.1 -0.1)">
       <defs>
        <path id="DejaVuSans-30" d="M 2034 4250 
Q 1547 4250 1301 3770 
Q 1056 3291 1056 2328 
Q 1056 1369 1301 889 
Q 1547 409 2034 409 
Q 2525 409 2770 889 
Q 3016 1369 3016 2328 
Q 3016 3291 2770 3770 
Q 2525 4250 2034 4250 
z
M 2034 4750 
Q 2819 4750 3233 4129 
Q 3647 3509 3647 2328 
Q 3647 1150 3233 529 
Q 2819 -91 2034 -91 
Q 1250 -91 836 529 
Q 422 1150 422 2328 
Q 422 3509 836 4129 
Q 1250 4750 2034 4750 
z
" transform="scale(0.015625)"/>
       </defs>
       <use xlink:href="#DejaVuSans-30"/>
      </g>
     </g>
    </g>
    <g id="xtick_2">
     <g id="line2d_2">
      <g>
       <use xlink:href="#m886293a873" x="343.726203" y="256.32" style="stroke: #000000; stroke-width: 0.8"/>
      </g>
     </g>
     <g id="text_2">
      <!-- 50 -->
      <g transform="translate(337.363703 270.918437) scale(0.1 -0.1)">
       <defs>
        <path id="DejaVuSans-35" d="M 691 4666 
L 3169 4666 
L 3169 4134 
L 1269 4134 
L 1269 2991 
Q 1406 3038 1543 3061 
Q 1681 3084 1819 3084 
Q 2600 3084 3056 2656 
Q 3513 2228 3513 1497 
Q 3513 744 3044 326 
Q 2575 -91 1722 -91 
Q 1428 -91 1123 -41 
Q 819 9 494 109 
L 494 744 
Q 775 591 1075 516 
Q 1375 441 1709 441 
Q 2250 441 2565 725 
Q 2881 1009 2881 1497 
Q 2881 1984 2565 2268 
Q 2250 2553 1709 2553 
Q 1456 2553 1204 2497 
Q 953 2441 691 2322 
L 691 4666 
z
" transform="scale(0.015625)"/>
       </defs>
       <use xlink:href="#DejaVuSans-35"/>
       <use xlink:href="#DejaVuSans-30" transform="translate(63.623047 0)"/>
      </g>
     </g>
    </g>
    <g id="xtick_3">
     <g id="line2d_3">
      <g>
       <use xlink:href="#m886293a873" x="502.870588" y="256.32" style="stroke: #000000; stroke-width: 0.8"/>
      </g>
     </g>
     <g id="text_3">
      <!-- 100 -->
      <g transform="translate(493.326838 270.918437) scale(0.1 -0.1)">
       <defs>
        <path id="DejaVuSans-31" d="M 794 531 
L 1825 531 
L 1825 4091 
L 703 3866 
L 703 4441 
L 1819 4666 
L 2450 4666 
L 2450 531 
L 3481 531 
L 3481 0 
L 794 0 
L 794 531 
z
" transform="scale(0.015625)"/>
       </defs>
       <use xlink:href="#DejaVuSans-31"/>
       <use xlink:href="#DejaVuSans-30" transform="translate(63.623047 0)"/>
       <use xlink:href="#DejaVuSans-30" transform="translate(127.246094 0)"/>
      </g>
     </g>
    </g>
    <g id="xtick_4">
     <g id="line2d_4">
      <g>
       <use xlink:href="#m886293a873" x="662.014973" y="256.32" style="stroke: #000000; stroke-width: 0.8"/>
      </g>
     </g>
     <g id="text_4">
      <!-- 150 -->
      <g transform="translate(652.471223 270.918437) scale(0.1 -0.1)">
       <use xlink:href="#DejaVuSans-31"/>
       <use xlink:href="#DejaVuSans-35" transform="translate(63.623047 0)"/>
       <use xlink:href="#DejaVuSans-30" transform="translate(127.246094 0)"/>
      </g>
     </g>
    </g>
    <g id="xtick_5">
     <g id="line2d_5">
      <g>
       <use xlink:href="#m886293a873" x="821.159358" y="256.32" style="stroke: #000000; stroke-width: 0.8"/>
      </g>
     </g>
     <g id="text_5">
      <!-- 200 -->
      <g transform="translate(811.615608 270.918437) scale(0.1 -0.1)">
       <defs>
        <path id="DejaVuSans-32" d="M 1228 531 
L 3431 531 
L 3431 0 
L 469 0 
L 469 531 
Q 828 903 1448 1529 
Q 2069 2156 2228 2338 
Q 2531 2678 2651 2914 
Q 2772 3150 2772 3378 
Q 2772 3750 2511 3984 
Q 2250 4219 1831 4219 
Q 1534 4219 1204 4116 
Q 875 4013 500 3803 
L 500 4441 
Q 881 4594 1212 4672 
Q 1544 4750 1819 4750 
Q 2544 4750 2975 4387 
Q 3406 4025 3406 3419 
Q 3406 3131 3298 2873 
Q 3191 2616 2906 2266 
Q 2828 2175 2409 1742 
Q 1991 1309 1228 531 
z
" transform="scale(0.015625)"/>
       </defs>
       <use xlink:href="#DejaVuSans-32"/>
       <use xlink:href="#DejaVuSans-30" transform="translate(63.623047 0)"/>
       <use xlink:href="#DejaVuSans-30" transform="translate(127.246094 0)"/>
      </g>
     </g>
    </g>
    <g id="xtick_6">
     <g id="line2d_6">
      <g>
       <use xlink:href="#m886293a873" x="980.303743" y="256.32" style="stroke: #000000; stroke-width: 0.8"/>
      </g>
     </g>
     <g id="text_6">
      <!-- 250 -->
      <g transform="translate(970.759993 270.918437) scale(0.1 -0.1)">
       <use xlink:href="#DejaVuSans-32"/>
       <use xlink:href="#DejaVuSans-35" transform="translate(63.623047 0)"/>
       <use xlink:href="#DejaVuSans-30" transform="translate(127.246094 0)"/>
      </g>
     </g>
    </g>
    <g id="text_7">
     <!-- intensity -->
     <g transform="translate(568.723437 284.596563) scale(0.1 -0.1)">
      <defs>
       <path id="DejaVuSans-69" d="M 603 3500 
L 1178 3500 
L 1178 0 
L 603 0 
L 603 3500 
z
M 603 4863 
L 1178 4863 
L 1178 4134 
L 603 4134 
L 603 4863 
z
" transform="scale(0.015625)"/>
       <path id="DejaVuSans-6e" d="M 3513 2113 
L 3513 0 
L 2938 0 
L 2938 2094 
Q 2938 2591 2744 2837 
Q 2550 3084 2163 3084 
Q 1697 3084 1428 2787 
Q 1159 2491 1159 1978 
L 1159 0 
L 581 0 
L 581 3500 
L 1159 3500 
L 1159 2956 
Q 1366 3272 1645 3428 
Q 1925 3584 2291 3584 
Q 2894 3584 3203 3211 
Q 3513 2838 3513 2113 
z
" transform="scale(0.015625)"/>
       <path id="DejaVuSans-74" d="M 1172 4494 
L 1172 3500 
L 2356 3500 
L 2356 3053 
L 1172 3053 
L 1172 1153 
Q 1172 725 1289 603 
Q 1406 481 1766 481 
L 2356 481 
L 2356 0 
L 1766 0 
Q 1100 0 847 248 
Q 594 497 594 1153 
L 594 3053 
L 172 3053 
L 172 3500 
L 594 3500 
L 594 4494 
L 1172 4494 
z
" transform="scale(0.015625)"/>
       <path id="DejaVuSans-65" d="M 3597 1894 
L 3597 1613 
L 953 1613 
Q 991 1019 1311 708 
Q 1631 397 2203 397 
Q 2534 397 2845 478 
Q 3156 559 3463 722 
L 3463 178 
Q 3153 47 2828 -22 
Q 2503 -91 2169 -91 
Q 1331 -91 842 396 
Q 353 884 353 1716 
Q 353 2575 817 3079 
Q 1281 3584 2069 3584 
Q 2775 3584 3186 3129 
Q 3597 2675 3597 1894 
z
M 3022 2063 
Q 3016 2534 2758 2815 
Q 2500 3097 2075 3097 
Q 1594 3097 1305 2825 
Q 1016 2553 972 2059 
L 3022 2063 
z
" transform="scale(0.015625)"/>
       <path id="DejaVuSans-73" d="M 2834 3397 
L 2834 2853 
Q 2591 2978 2328 3040 
Q 2066 3103 1784 3103 
Q 1356 3103 1142 2972 
Q 928 2841 928 2578 
Q 928 2378 1081 2264 
Q 1234 2150 1697 2047 
L 1894 2003 
Q 2506 1872 2764 1633 
Q 3022 1394 3022 966 
Q 3022 478 2636 193 
Q 2250 -91 1575 -91 
Q 1294 -91 989 -36 
Q 684 19 347 128 
L 347 722 
Q 666 556 975 473 
Q 1284 391 1588 391 
Q 1994 391 2212 530 
Q 2431 669 2431 922 
Q 2431 1156 2273 1281 
Q 2116 1406 1581 1522 
L 1381 1569 
Q 847 1681 609 1914 
Q 372 2147 372 2553 
Q 372 3047 722 3315 
Q 1072 3584 1716 3584 
Q 2034 3584 2315 3537 
Q 2597 3491 2834 3397 
z
" transform="scale(0.015625)"/>
       <path id="DejaVuSans-79" d="M 2059 -325 
Q 1816 -950 1584 -1140 
Q 1353 -1331 966 -1331 
L 506 -1331 
L 506 -850 
L 844 -850 
Q 1081 -850 1212 -737 
Q 1344 -625 1503 -206 
L 1606 56 
L 191 3500 
L 800 3500 
L 1894 763 
L 2988 3500 
L 3597 3500 
L 2059 -325 
z
" transform="scale(0.015625)"/>
      </defs>
      <use xlink:href="#DejaVuSans-69"/>
      <use xlink:href="#DejaVuSans-6e" transform="translate(27.783203 0)"/>
      <use xlink:href="#DejaVuSans-74" transform="translate(91.162109 0)"/>
      <use xlink:href="#DejaVuSans-65" transform="translate(130.371094 0)"/>
      <use xlink:href="#DejaVuSans-6e" transform="translate(191.894531 0)"/>
      <use xlink:href="#DejaVuSans-73" transform="translate(255.273438 0)"/>
      <use xlink:href="#DejaVuSans-69" transform="translate(307.373047 0)"/>
      <use xlink:href="#DejaVuSans-74" transform="translate(335.15625 0)"/>
      <use xlink:href="#DejaVuSans-79" transform="translate(374.365234 0)"/>
     </g>
    </g>
   </g>
   <g id="matplotlib.axis_2">
    <g id="ytick_1">
     <g id="line2d_7">
      <defs>
       <path id="m8e2728c2c5" d="M 0 0 
L -3.5 0 
" style="stroke: #000000; stroke-width: 0.8"/>
      </defs>
      <g>
       <use xlink:href="#m8e2728c2c5" x="144" y="256.32" style="stroke: #000000; stroke-width: 0.8"/>
      </g>
     </g>
     <g id="text_8">
      <!-- 0 -->
      <g transform="translate(130.6375 260.119219) scale(0.1 -0.1)">
       <use xlink:href="#DejaVuSans-30"/>
      </g>
     </g>
    </g>
    <g id="ytick_2">
     <g id="line2d_8">
      <g>
       <use xlink:href="#m8e2728c2c5" x="144" y="211.968" style="stroke: #000000; stroke-width: 0.8"/>
      </g>
     </g>
     <g id="text_9">
      <!-- 1000 -->
      <g transform="translate(111.55 215.767219) scale(0.1 -0.1)">
       <use xlink:href="#DejaVuSans-31"/>
       <use xlink:href="#DejaVuSans-30" transform="translate(63.623047 0)"/>
       <use xlink:href="#DejaVuSans-30" transform="translate(127.246094 0)"/>
       <use xlink:href="#DejaVuSans-30" transform="translate(190.869141 0)"/>
      </g>
     </g>
    </g>
    <g id="ytick_3">
     <g id="line2d_9">
      <g>
       <use xlink:href="#m8e2728c2c5" x="144" y="167.616" style="stroke: #000000; stroke-width: 0.8"/>
      </g>
     </g>
     <g id="text_10">
      <!-- 2000 -->
      <g transform="translate(111.55 171.415219) scale(0.1 -0.1)">
       <use xlink:href="#DejaVuSans-32"/>
       <use xlink:href="#DejaVuSans-30" transform="translate(63.623047 0)"/>
       <use xlink:href="#DejaVuSans-30" transform="translate(127.246094 0)"/>
       <use xlink:href="#DejaVuSans-30" transform="translate(190.869141 0)"/>
      </g>
     </g>
    </g>
    <g id="ytick_4">
     <g id="line2d_10">
      <g>
       <use xlink:href="#m8e2728c2c5" x="144" y="123.264" style="stroke: #000000; stroke-width: 0.8"/>
      </g>
     </g>
     <g id="text_11">
      <!-- 3000 -->
      <g transform="translate(111.55 127.063219) scale(0.1 -0.1)">
       <defs>
        <path id="DejaVuSans-33" d="M 2597 2516 
Q 3050 2419 3304 2112 
Q 3559 1806 3559 1356 
Q 3559 666 3084 287 
Q 2609 -91 1734 -91 
Q 1441 -91 1130 -33 
Q 819 25 488 141 
L 488 750 
Q 750 597 1062 519 
Q 1375 441 1716 441 
Q 2309 441 2620 675 
Q 2931 909 2931 1356 
Q 2931 1769 2642 2001 
Q 2353 2234 1838 2234 
L 1294 2234 
L 1294 2753 
L 1863 2753 
Q 2328 2753 2575 2939 
Q 2822 3125 2822 3475 
Q 2822 3834 2567 4026 
Q 2313 4219 1838 4219 
Q 1578 4219 1281 4162 
Q 984 4106 628 3988 
L 628 4550 
Q 988 4650 1302 4700 
Q 1616 4750 1894 4750 
Q 2613 4750 3031 4423 
Q 3450 4097 3450 3541 
Q 3450 3153 3228 2886 
Q 3006 2619 2597 2516 
z
" transform="scale(0.015625)"/>
       </defs>
       <use xlink:href="#DejaVuSans-33"/>
       <use xlink:href="#DejaVuSans-30" transform="translate(63.623047 0)"/>
       <use xlink:href="#DejaVuSans-30" transform="translate(127.246094 0)"/>
       <use xlink:href="#DejaVuSans-30" transform="translate(190.869141 0)"/>
      </g>
     </g>
    </g>
    <g id="ytick_5">
     <g id="line2d_11">
      <g>
       <use xlink:href="#m8e2728c2c5" x="144" y="78.912" style="stroke: #000000; stroke-width: 0.8"/>
      </g>
     </g>
     <g id="text_12">
      <!-- 4000 -->
      <g transform="translate(111.55 82.711219) scale(0.1 -0.1)">
       <defs>
        <path id="DejaVuSans-34" d="M 2419 4116 
L 825 1625 
L 2419 1625 
L 2419 4116 
z
M 2253 4666 
L 3047 4666 
L 3047 1625 
L 3713 1625 
L 3713 1100 
L 3047 1100 
L 3047 0 
L 2419 0 
L 2419 1100 
L 313 1100 
L 313 1709 
L 2253 4666 
z
" transform="scale(0.015625)"/>
       </defs>
       <use xlink:href="#DejaVuSans-34"/>
       <use xlink:href="#DejaVuSans-30" transform="translate(63.623047 0)"/>
       <use xlink:href="#DejaVuSans-30" transform="translate(127.246094 0)"/>
       <use xlink:href="#DejaVuSans-30" transform="translate(190.869141 0)"/>
      </g>
     </g>
    </g>
    <g id="ytick_6">
     <g id="line2d_12">
      <g>
       <use xlink:href="#m8e2728c2c5" x="144" y="34.56" style="stroke: #000000; stroke-width: 0.8"/>
      </g>
     </g>
     <g id="text_13">
      <!-- 5000 -->
      <g transform="translate(111.55 38.359219) scale(0.1 -0.1)">
       <use xlink:href="#DejaVuSans-35"/>
       <use xlink:href="#DejaVuSans-30" transform="translate(63.623047 0)"/>
       <use xlink:href="#DejaVuSans-30" transform="translate(127.246094 0)"/>
       <use xlink:href="#DejaVuSans-30" transform="translate(190.869141 0)"/>
      </g>
     </g>
    </g>
   </g>
   <g id="line2d_13">
    <path d="M 187.51391 -1 
L 187.764706 98.918585 
L 190.947594 94.887415 
L 194.130481 93.707333 
L 197.313369 93.656398 
L 200.496257 94.583989 
L 203.679144 95.958555 
L 206.862032 97.718742 
L 210.04492 99.880512 
L 216.410695 104.633756 
L 235.508021 120.952596 
L 245.056684 128.626954 
L 251.42246 133.314687 
L 254.605348 135.575015 
L 264.154011 141.705391 
L 267.336898 143.626148 
L 276.885561 148.843756 
L 283.251337 151.993387 
L 289.617112 154.918497 
L 305.531551 161.310967 
L 315.080214 164.621211 
L 321.445989 166.656108 
L 330.994652 169.502411 
L 343.726203 172.985743 
L 356.457754 176.000196 
L 366.006417 177.983626 
L 385.103743 181.566225 
L 458.31016 192.997428 
L 486.95615 198.327556 
L 499.687701 201.022319 
L 518.785027 205.398528 
L 547.431016 212.313986 
L 553.796791 213.903224 
L 579.259893 220.041504 
L 588.808556 222.18583 
L 598.357219 224.208427 
L 623.820321 228.925577 
L 636.551872 230.96163 
L 646.100535 232.431372 
L 665.197861 235.149979 
L 674.746524 236.346891 
L 684.295187 237.530935 
L 716.124064 241.041547 
L 719.306952 241.271455 
L 722.48984 241.637149 
L 725.672727 241.838992 
L 728.855615 242.237038 
L 735.22139 242.752223 
L 738.404278 243.133457 
L 741.587166 243.33392 
L 744.770053 243.67582 
L 747.952941 243.854575 
L 751.135829 244.219052 
L 754.318717 244.375438 
L 757.501604 244.765189 
L 763.86738 245.189713 
L 767.050267 245.560451 
L 770.233155 245.675472 
L 773.416043 246.064436 
L 776.59893 246.139349 
L 779.781818 246.519947 
L 782.964706 246.561886 
L 786.147594 246.798677 
L 789.330481 247.199153 
L 792.513369 247.246544 
L 795.696257 247.63549 
L 798.879144 247.659065 
L 802.062032 248.03108 
L 805.24492 248.035989 
L 808.427807 248.413683 
L 811.610695 248.381114 
L 814.793583 248.606104 
L 817.976471 249.029337 
L 821.159358 248.969116 
L 824.342246 249.394693 
L 827.525134 249.273997 
L 830.708021 249.731782 
L 833.890909 249.571444 
L 837.073797 249.749226 
L 840.256684 250.225541 
L 843.439572 250.074246 
L 846.62246 250.537492 
L 849.805348 250.35568 
L 852.988235 250.812126 
L 856.171123 250.607805 
L 859.354011 250.74217 
L 862.536898 251.243572 
L 865.719786 250.957956 
L 868.902674 251.43835 
L 872.085561 251.163264 
L 875.268449 251.761022 
L 878.451337 251.401089 
L 881.634225 252.009687 
L 884.817112 251.612153 
L 888 251.773809 
L 891.182888 252.306746 
L 894.365775 251.841809 
L 897.548663 252.487433 
L 900.731551 252.04206 
L 903.914439 252.643541 
L 907.097326 252.142203 
L 910.280214 252.20392 
L 913.463102 252.868322 
L 916.645989 252.213042 
L 919.828877 252.890261 
L 923.011765 252.157703 
L 926.194652 252.824462 
L 929.37754 252.087217 
L 932.560428 252.82394 
L 935.743316 251.964913 
L 938.926203 251.986508 
L 942.109091 252.712732 
L 945.291979 251.695627 
L 948.474866 252.394263 
L 951.657754 251.234533 
L 954.840642 251.985708 
L 958.023529 250.621297 
L 961.206417 250.70124 
L 964.389305 251.334046 
L 967.572193 250.027299 
L 970.75508 250.460549 
L 973.937968 248.993251 
L 977.120856 248.647778 
L 980.303743 244.775689 
L 983.486631 244.979901 
L 986.669519 220.601096 
L 989.852406 245.924306 
L 993.035294 248.371414 
L 996.218182 234.470721 
L 996.218182 234.470721 
" clip-path="url(#pdc323e4014)" style="fill: none; stroke: #0000ff; stroke-width: 1.5; stroke-linecap: square"/>
   </g>
   <g id="line2d_14">
    <path d="M 184.581818 254.469225 
L 187.764706 255.182852 
L 194.130481 254.212217 
L 197.313369 253.485198 
L 200.496257 252.437624 
L 206.862032 249.516966 
L 213.227807 246.519112 
L 222.776471 242.493384 
L 229.142246 240.144063 
L 235.508021 238.066645 
L 241.873797 236.27313 
L 248.239572 234.772437 
L 254.605348 233.484202 
L 264.154011 231.96099 
L 270.519786 231.171211 
L 280.068449 230.208951 
L 286.434225 229.739281 
L 299.165775 229.018613 
L 318.263102 228.05021 
L 340.543316 226.654844 
L 353.274866 225.66629 
L 362.823529 224.798107 
L 372.372193 223.746001 
L 388.286631 221.572766 
L 397.835294 220.055221 
L 410.566845 217.777798 
L 420.115508 215.866964 
L 442.395722 210.804177 
L 490.139037 199.098227 
L 499.687701 196.881612 
L 512.419251 194.203838 
L 521.967914 192.514461 
L 528.33369 191.656495 
L 534.699465 191.001669 
L 541.065241 190.522655 
L 547.431016 190.217648 
L 556.979679 190.301474 
L 569.71123 190.944849 
L 585.625668 191.784391 
L 591.991444 191.922634 
L 607.905882 191.738843 
L 636.551872 190.067403 
L 642.917647 189.571805 
L 658.832086 188.274 
L 684.295187 186.469991 
L 703.392513 184.991854 
L 712.941176 184.188342 
L 722.48984 183.389286 
L 738.404278 181.965372 
L 795.696257 175.503309 
L 811.610695 174.105837 
L 817.976471 173.716116 
L 830.708021 173.441813 
L 840.256684 173.791263 
L 846.62246 174.34954 
L 849.805348 174.705363 
L 856.171123 175.721653 
L 859.354011 176.338975 
L 862.536898 177.08003 
L 868.902674 178.927763 
L 875.268449 181.080416 
L 881.634225 183.533853 
L 888 186.149051 
L 897.548663 190.58601 
L 910.280214 196.84498 
L 932.560428 208.151671 
L 942.109091 212.474264 
L 951.657754 216.431656 
L 958.023529 218.713751 
L 961.206417 219.722218 
L 967.572193 221.263837 
L 973.937968 222.429999 
L 977.120856 222.854711 
L 980.303743 222.957589 
L 983.486631 222.324441 
L 986.669519 220.505235 
L 989.852406 217.114846 
L 993.035294 212.904535 
L 996.218182 48.84338 
L 996.218182 48.84338 
" clip-path="url(#pdc323e4014)" style="fill: none; stroke: #008000; stroke-width: 1.5; stroke-linecap: square"/>
   </g>
   <g id="line2d_15">
    <path d="M 184.581818 234.203652 
L 187.764706 250.431953 
L 190.947594 249.679374 
L 194.130481 247.586126 
L 200.496257 243.67378 
L 203.679144 241.006534 
L 210.04492 236.557303 
L 219.593583 230.774691 
L 225.959358 227.616035 
L 232.325134 224.991119 
L 238.690909 222.798624 
L 245.056684 221.036904 
L 248.239572 220.269141 
L 254.605348 219.049025 
L 260.971123 218.115855 
L 267.336898 217.313645 
L 308.714439 213.010819 
L 324.628877 211.001465 
L 337.360428 209.125287 
L 350.091979 207.041831 
L 362.823529 204.812277 
L 378.737968 201.585815 
L 423.298396 191.693278 
L 436.029947 189.212073 
L 448.761497 187.175384 
L 458.31016 186.032313 
L 467.858824 185.117542 
L 477.407487 184.442906 
L 490.139037 183.673969 
L 509.236364 183.019381 
L 525.150802 182.859087 
L 537.882353 183.010167 
L 547.431016 183.426351 
L 572.894118 184.809308 
L 585.625668 185.313953 
L 601.540107 185.585214 
L 607.905882 185.590536 
L 620.637433 185.258134 
L 630.186096 184.938721 
L 671.563636 182.973784 
L 690.660963 182.570723 
L 700.209626 182.571454 
L 709.758289 182.837907 
L 719.306952 183.338454 
L 732.038503 184.329103 
L 741.587166 185.431173 
L 747.952941 186.329783 
L 760.684492 188.650023 
L 773.416043 191.376382 
L 786.147594 194.62927 
L 798.879144 198.316111 
L 808.427807 201.281458 
L 833.890909 209.442286 
L 849.805348 214.510899 
L 862.536898 218.334984 
L 875.268449 221.953618 
L 884.817112 224.382394 
L 900.731551 227.965632 
L 910.280214 229.793322 
L 919.828877 231.46745 
L 929.37754 232.81834 
L 945.291979 235.298369 
L 951.657754 236.060188 
L 967.572193 237.261932 
L 973.937968 235.931332 
L 977.120856 234.741214 
L 980.303743 234.929449 
L 983.486631 230.697873 
L 986.669519 229.737573 
L 989.852406 203.371519 
L 993.035294 228.566222 
L 996.218182 174.403643 
L 996.218182 174.403643 
" clip-path="url(#pdc323e4014)" style="fill: none; stroke: #ff0000; stroke-width: 1.5; stroke-linecap: square"/>
   </g>
   <g id="patch_3">
    <path d="M 144 256.32 
L 144 34.56 
" style="fill: none; stroke: #000000; stroke-width: 0.8; stroke-linejoin: miter; stroke-linecap: square"/>
   </g>
   <g id="patch_4">
    <path d="M 1036.8 256.32 
L 1036.8 34.56 
" style="fill: none; stroke: #000000; stroke-width: 0.8; stroke-linejoin: miter; stroke-linecap: square"/>
   </g>
   <g id="patch_5">
    <path d="M 144 256.32 
L 1036.8 256.32 
" style="fill: none; stroke: #000000; stroke-width: 0.8; stroke-linejoin: miter; stroke-linecap: square"/>
   </g>
   <g id="patch_6">
    <path d="M 144 34.56 
L 1036.8 34.56 
" style="fill: none; stroke: #000000; stroke-width: 0.8; stroke-linejoin: miter; stroke-linecap: square"/>
   </g>
   <g id="text_14">
    <!-- Color distributions across all images (mean) -->
    <g transform="translate(458.13 28.56) scale(0.12 -0.12)">
     <defs>
      <path id="DejaVuSans-43" d="M 4122 4306 
L 4122 3641 
Q 3803 3938 3442 4084 
Q 3081 4231 2675 4231 
Q 1875 4231 1450 3742 
Q 1025 3253 1025 2328 
Q 1025 1406 1450 917 
Q 1875 428 2675 428 
Q 3081 428 3442 575 
Q 3803 722 4122 1019 
L 4122 359 
Q 3791 134 3420 21 
Q 3050 -91 2638 -91 
Q 1578 -91 968 557 
Q 359 1206 359 2328 
Q 359 3453 968 4101 
Q 1578 4750 2638 4750 
Q 3056 4750 3426 4639 
Q 3797 4528 4122 4306 
z
" transform="scale(0.015625)"/>
      <path id="DejaVuSans-6f" d="M 1959 3097 
Q 1497 3097 1228 2736 
Q 959 2375 959 1747 
Q 959 1119 1226 758 
Q 1494 397 1959 397 
Q 2419 397 2687 759 
Q 2956 1122 2956 1747 
Q 2956 2369 2687 2733 
Q 2419 3097 1959 3097 
z
M 1959 3584 
Q 2709 3584 3137 3096 
Q 3566 2609 3566 1747 
Q 3566 888 3137 398 
Q 2709 -91 1959 -91 
Q 1206 -91 779 398 
Q 353 888 353 1747 
Q 353 2609 779 3096 
Q 1206 3584 1959 3584 
z
" transform="scale(0.015625)"/>
      <path id="DejaVuSans-6c" d="M 603 4863 
L 1178 4863 
L 1178 0 
L 603 0 
L 603 4863 
z
" transform="scale(0.015625)"/>
      <path id="DejaVuSans-72" d="M 2631 2963 
Q 2534 3019 2420 3045 
Q 2306 3072 2169 3072 
Q 1681 3072 1420 2755 
Q 1159 2438 1159 1844 
L 1159 0 
L 581 0 
L 581 3500 
L 1159 3500 
L 1159 2956 
Q 1341 3275 1631 3429 
Q 1922 3584 2338 3584 
Q 2397 3584 2469 3576 
Q 2541 3569 2628 3553 
L 2631 2963 
z
" transform="scale(0.015625)"/>
      <path id="DejaVuSans-20" transform="scale(0.015625)"/>
      <path id="DejaVuSans-64" d="M 2906 2969 
L 2906 4863 
L 3481 4863 
L 3481 0 
L 2906 0 
L 2906 525 
Q 2725 213 2448 61 
Q 2172 -91 1784 -91 
Q 1150 -91 751 415 
Q 353 922 353 1747 
Q 353 2572 751 3078 
Q 1150 3584 1784 3584 
Q 2172 3584 2448 3432 
Q 2725 3281 2906 2969 
z
M 947 1747 
Q 947 1113 1208 752 
Q 1469 391 1925 391 
Q 2381 391 2643 752 
Q 2906 1113 2906 1747 
Q 2906 2381 2643 2742 
Q 2381 3103 1925 3103 
Q 1469 3103 1208 2742 
Q 947 2381 947 1747 
z
" transform="scale(0.015625)"/>
      <path id="DejaVuSans-62" d="M 3116 1747 
Q 3116 2381 2855 2742 
Q 2594 3103 2138 3103 
Q 1681 3103 1420 2742 
Q 1159 2381 1159 1747 
Q 1159 1113 1420 752 
Q 1681 391 2138 391 
Q 2594 391 2855 752 
Q 3116 1113 3116 1747 
z
M 1159 2969 
Q 1341 3281 1617 3432 
Q 1894 3584 2278 3584 
Q 2916 3584 3314 3078 
Q 3713 2572 3713 1747 
Q 3713 922 3314 415 
Q 2916 -91 2278 -91 
Q 1894 -91 1617 61 
Q 1341 213 1159 525 
L 1159 0 
L 581 0 
L 581 4863 
L 1159 4863 
L 1159 2969 
z
" transform="scale(0.015625)"/>
      <path id="DejaVuSans-75" d="M 544 1381 
L 544 3500 
L 1119 3500 
L 1119 1403 
Q 1119 906 1312 657 
Q 1506 409 1894 409 
Q 2359 409 2629 706 
Q 2900 1003 2900 1516 
L 2900 3500 
L 3475 3500 
L 3475 0 
L 2900 0 
L 2900 538 
Q 2691 219 2414 64 
Q 2138 -91 1772 -91 
Q 1169 -91 856 284 
Q 544 659 544 1381 
z
M 1991 3584 
L 1991 3584 
z
" transform="scale(0.015625)"/>
      <path id="DejaVuSans-61" d="M 2194 1759 
Q 1497 1759 1228 1600 
Q 959 1441 959 1056 
Q 959 750 1161 570 
Q 1363 391 1709 391 
Q 2188 391 2477 730 
Q 2766 1069 2766 1631 
L 2766 1759 
L 2194 1759 
z
M 3341 1997 
L 3341 0 
L 2766 0 
L 2766 531 
Q 2569 213 2275 61 
Q 1981 -91 1556 -91 
Q 1019 -91 701 211 
Q 384 513 384 1019 
Q 384 1609 779 1909 
Q 1175 2209 1959 2209 
L 2766 2209 
L 2766 2266 
Q 2766 2663 2505 2880 
Q 2244 3097 1772 3097 
Q 1472 3097 1187 3025 
Q 903 2953 641 2809 
L 641 3341 
Q 956 3463 1253 3523 
Q 1550 3584 1831 3584 
Q 2591 3584 2966 3190 
Q 3341 2797 3341 1997 
z
" transform="scale(0.015625)"/>
      <path id="DejaVuSans-63" d="M 3122 3366 
L 3122 2828 
Q 2878 2963 2633 3030 
Q 2388 3097 2138 3097 
Q 1578 3097 1268 2742 
Q 959 2388 959 1747 
Q 959 1106 1268 751 
Q 1578 397 2138 397 
Q 2388 397 2633 464 
Q 2878 531 3122 666 
L 3122 134 
Q 2881 22 2623 -34 
Q 2366 -91 2075 -91 
Q 1284 -91 818 406 
Q 353 903 353 1747 
Q 353 2603 823 3093 
Q 1294 3584 2113 3584 
Q 2378 3584 2631 3529 
Q 2884 3475 3122 3366 
z
" transform="scale(0.015625)"/>
      <path id="DejaVuSans-6d" d="M 3328 2828 
Q 3544 3216 3844 3400 
Q 4144 3584 4550 3584 
Q 5097 3584 5394 3201 
Q 5691 2819 5691 2113 
L 5691 0 
L 5113 0 
L 5113 2094 
Q 5113 2597 4934 2840 
Q 4756 3084 4391 3084 
Q 3944 3084 3684 2787 
Q 3425 2491 3425 1978 
L 3425 0 
L 2847 0 
L 2847 2094 
Q 2847 2600 2669 2842 
Q 2491 3084 2119 3084 
Q 1678 3084 1418 2786 
Q 1159 2488 1159 1978 
L 1159 0 
L 581 0 
L 581 3500 
L 1159 3500 
L 1159 2956 
Q 1356 3278 1631 3431 
Q 1906 3584 2284 3584 
Q 2666 3584 2933 3390 
Q 3200 3197 3328 2828 
z
" transform="scale(0.015625)"/>
      <path id="DejaVuSans-67" d="M 2906 1791 
Q 2906 2416 2648 2759 
Q 2391 3103 1925 3103 
Q 1463 3103 1205 2759 
Q 947 2416 947 1791 
Q 947 1169 1205 825 
Q 1463 481 1925 481 
Q 2391 481 2648 825 
Q 2906 1169 2906 1791 
z
M 3481 434 
Q 3481 -459 3084 -895 
Q 2688 -1331 1869 -1331 
Q 1566 -1331 1297 -1286 
Q 1028 -1241 775 -1147 
L 775 -588 
Q 1028 -725 1275 -790 
Q 1522 -856 1778 -856 
Q 2344 -856 2625 -561 
Q 2906 -266 2906 331 
L 2906 616 
Q 2728 306 2450 153 
Q 2172 0 1784 0 
Q 1141 0 747 490 
Q 353 981 353 1791 
Q 353 2603 747 3093 
Q 1141 3584 1784 3584 
Q 2172 3584 2450 3431 
Q 2728 3278 2906 2969 
L 2906 3500 
L 3481 3500 
L 3481 434 
z
" transform="scale(0.015625)"/>
      <path id="DejaVuSans-28" d="M 1984 4856 
Q 1566 4138 1362 3434 
Q 1159 2731 1159 2009 
Q 1159 1288 1364 580 
Q 1569 -128 1984 -844 
L 1484 -844 
Q 1016 -109 783 600 
Q 550 1309 550 2009 
Q 550 2706 781 3412 
Q 1013 4119 1484 4856 
L 1984 4856 
z
" transform="scale(0.015625)"/>
      <path id="DejaVuSans-29" d="M 513 4856 
L 1013 4856 
Q 1481 4119 1714 3412 
Q 1947 2706 1947 2009 
Q 1947 1309 1714 600 
Q 1481 -109 1013 -844 
L 513 -844 
Q 928 -128 1133 580 
Q 1338 1288 1338 2009 
Q 1338 2731 1133 3434 
Q 928 4138 513 4856 
z
" transform="scale(0.015625)"/>
     </defs>
     <use xlink:href="#DejaVuSans-43"/>
     <use xlink:href="#DejaVuSans-6f" transform="translate(69.824219 0)"/>
     <use xlink:href="#DejaVuSans-6c" transform="translate(131.005859 0)"/>
     <use xlink:href="#DejaVuSans-6f" transform="translate(158.789062 0)"/>
     <use xlink:href="#DejaVuSans-72" transform="translate(219.970703 0)"/>
     <use xlink:href="#DejaVuSans-20" transform="translate(261.083984 0)"/>
     <use xlink:href="#DejaVuSans-64" transform="translate(292.871094 0)"/>
     <use xlink:href="#DejaVuSans-69" transform="translate(356.347656 0)"/>
     <use xlink:href="#DejaVuSans-73" transform="translate(384.130859 0)"/>
     <use xlink:href="#DejaVuSans-74" transform="translate(436.230469 0)"/>
     <use xlink:href="#DejaVuSans-72" transform="translate(475.439453 0)"/>
     <use xlink:href="#DejaVuSans-69" transform="translate(516.552734 0)"/>
     <use xlink:href="#DejaVuSans-62" transform="translate(544.335938 0)"/>
     <use xlink:href="#DejaVuSans-75" transform="translate(607.8125 0)"/>
     <use xlink:href="#DejaVuSans-74" transform="translate(671.191406 0)"/>
     <use xlink:href="#DejaVuSans-69" transform="translate(710.400391 0)"/>
     <use xlink:href="#DejaVuSans-6f" transform="translate(738.183594 0)"/>
     <use xlink:href="#DejaVuSans-6e" transform="translate(799.365234 0)"/>
     <use xlink:href="#DejaVuSans-73" transform="translate(862.744141 0)"/>
     <use xlink:href="#DejaVuSans-20" transform="translate(914.84375 0)"/>
     <use xlink:href="#DejaVuSans-61" transform="translate(946.630859 0)"/>
     <use xlink:href="#DejaVuSans-63" transform="translate(1007.910156 0)"/>
     <use xlink:href="#DejaVuSans-72" transform="translate(1062.890625 0)"/>
     <use xlink:href="#DejaVuSans-6f" transform="translate(1101.753906 0)"/>
     <use xlink:href="#DejaVuSans-73" transform="translate(1162.935547 0)"/>
     <use xlink:href="#DejaVuSans-73" transform="translate(1215.035156 0)"/>
     <use xlink:href="#DejaVuSans-20" transform="translate(1267.134766 0)"/>
     <use xlink:href="#DejaVuSans-61" transform="translate(1298.921875 0)"/>
     <use xlink:href="#DejaVuSans-6c" transform="translate(1360.201172 0)"/>
     <use xlink:href="#DejaVuSans-6c" transform="translate(1387.984375 0)"/>
     <use xlink:href="#DejaVuSans-20" transform="translate(1415.767578 0)"/>
     <use xlink:href="#DejaVuSans-69" transform="translate(1447.554688 0)"/>
     <use xlink:href="#DejaVuSans-6d" transform="translate(1475.337891 0)"/>
     <use xlink:href="#DejaVuSans-61" transform="translate(1572.75 0)"/>
     <use xlink:href="#DejaVuSans-67" transform="translate(1634.029297 0)"/>
     <use xlink:href="#DejaVuSans-65" transform="translate(1697.505859 0)"/>
     <use xlink:href="#DejaVuSans-73" transform="translate(1759.029297 0)"/>
     <use xlink:href="#DejaVuSans-20" transform="translate(1811.128906 0)"/>
     <use xlink:href="#DejaVuSans-28" transform="translate(1842.916016 0)"/>
     <use xlink:href="#DejaVuSans-6d" transform="translate(1881.929688 0)"/>
     <use xlink:href="#DejaVuSans-65" transform="translate(1979.341797 0)"/>
     <use xlink:href="#DejaVuSans-61" transform="translate(2040.865234 0)"/>
     <use xlink:href="#DejaVuSans-6e" transform="translate(2102.144531 0)"/>
     <use xlink:href="#DejaVuSans-29" transform="translate(2165.523438 0)"/>
    </g>
   </g>
  </g>
 </g>
 <defs>
  <clipPath id="pdc323e4014">
   <rect x="144" y="34.56" width="892.8" height="221.76"/>
  </clipPath>
 </defs>
</svg>
