<?xml version="1.0" encoding="utf-8" standalone="no"?>
<!DOCTYPE svg PUBLIC "-//W3C//DTD SVG 1.1//EN"
  "http://www.w3.org/Graphics/SVG/1.1/DTD/svg11.dtd">
<svg xmlns:xlink="http://www.w3.org/1999/xlink" width="939.65pt" height="281.634375pt" viewBox="0 0 939.65 281.634375" xmlns="http://www.w3.org/2000/svg" version="1.1">
 <metadata>
  <rdf:RDF xmlns:dc="http://purl.org/dc/elements/1.1/" xmlns:cc="http://creativecommons.org/ns#" xmlns:rdf="http://www.w3.org/1999/02/22-rdf-syntax-ns#">
   <cc:Work>
    <dc:type rdf:resource="http://purl.org/dc/dcmitype/StillImage"/>
    <dc:date>1980-01-01T00:00:00+00:00</dc:date>
    <dc:format>image/svg+xml</dc:format>
    <dc:creator>
     <cc:Agent>
      <dc:title>Matplotlib v3.10.1, https://matplotlib.org/</dc:title>
     </cc:Agent>
    </dc:creator>
   </cc:Work>
  </rdf:RDF>
 </metadata>
 <defs>
  <style type="text/css">*{stroke-linejoin: round; stroke-linecap: butt}</style>
 </defs>
 <g id="figure_1">
  <g id="patch_1">
   <path d="M 0 281.634375 
L 939.65 281.634375 
L 939.65 0 
L 0 0 
z
" style="fill: #ffffff"/>
  </g>
  <g id="axes_1">
   <g id="patch_2">
    <path d="M 39.65 244.078125 
L 932.45 244.078125 
L 932.45 22.318125 
L 39.65 22.318125 
z
" style="fill: #ffffff"/>
   </g>
   <g id="matplotlib.axis_1">
    <g id="xtick_1">
     <g id="line2d_1">
      <defs>
       <path id="m11fe1e13ae" d="M 0 0 
L 0 3.5 
" style="stroke: #000000; stroke-width: 0.8"/>
      </defs>
      <g>
       <use xlink:href="#m11fe1e13ae" x="80.231818" y="244.078125" style="stroke: #000000; stroke-width: 0.8"/>
      </g>
     </g>
     <g id="text_1">
      <!-- 0 -->
      <g transform="translate(77.050568 258.676562) scale(0.1 -0.1)">
       <defs>
        <path id="DejaVuSans-30" d="M 2034 4250 
Q 1547 4250 1301 3770 
Q 1056 3291 1056 2328 
Q 1056 1369 1301 889 
Q 1547 409 2034 409 
Q 2525 409 2770 889 
Q 3016 1369 3016 2328 
Q 3016 3291 2770 3770 
Q 2525 4250 2034 4250 
z
M 2034 4750 
Q 2819 4750 3233 4129 
Q 3647 3509 3647 2328 
Q 3647 1150 3233 529 
Q 2819 -91 2034 -91 
Q 1250 -91 836 529 
Q 422 1150 422 2328 
Q 422 3509 836 4129 
Q 1250 4750 2034 4750 
z
" transform="scale(0.015625)"/>
       </defs>
       <use xlink:href="#DejaVuSans-30"/>
      </g>
     </g>
    </g>
    <g id="xtick_2">
     <g id="line2d_2">
      <g>
       <use xlink:href="#m11fe1e13ae" x="239.376203" y="244.078125" style="stroke: #000000; stroke-width: 0.8"/>
      </g>
     </g>
     <g id="text_2">
      <!-- 50 -->
      <g transform="translate(233.013703 258.676562) scale(0.1 -0.1)">
       <defs>
        <path id="DejaVuSans-35" d="M 691 4666 
L 3169 4666 
L 3169 4134 
L 1269 4134 
L 1269 2991 
Q 1406 3038 1543 3061 
Q 1681 3084 1819 3084 
Q 2600 3084 3056 2656 
Q 3513 2228 3513 1497 
Q 3513 744 3044 326 
Q 2575 -91 1722 -91 
Q 1428 -91 1123 -41 
Q 819 9 494 109 
L 494 744 
Q 775 591 1075 516 
Q 1375 441 1709 441 
Q 2250 441 2565 725 
Q 2881 1009 2881 1497 
Q 2881 1984 2565 2268 
Q 2250 2553 1709 2553 
Q 1456 2553 1204 2497 
Q 953 2441 691 2322 
L 691 4666 
z
" transform="scale(0.015625)"/>
       </defs>
       <use xlink:href="#DejaVuSans-35"/>
       <use xlink:href="#DejaVuSans-30" transform="translate(63.623047 0)"/>
      </g>
     </g>
    </g>
    <g id="xtick_3">
     <g id="line2d_3">
      <g>
       <use xlink:href="#m11fe1e13ae" x="398.520588" y="244.078125" style="stroke: #000000; stroke-width: 0.8"/>
      </g>
     </g>
     <g id="text_3">
      <!-- 100 -->
      <g transform="translate(388.976838 258.676562) scale(0.1 -0.1)">
       <defs>
        <path id="DejaVuSans-31" d="M 794 531 
L 1825 531 
L 1825 4091 
L 703 3866 
L 703 4441 
L 1819 4666 
L 2450 4666 
L 2450 531 
L 3481 531 
L 3481 0 
L 794 0 
L 794 531 
z
" transform="scale(0.015625)"/>
       </defs>
       <use xlink:href="#DejaVuSans-31"/>
       <use xlink:href="#DejaVuSans-30" transform="translate(63.623047 0)"/>
       <use xlink:href="#DejaVuSans-30" transform="translate(127.246094 0)"/>
      </g>
     </g>
    </g>
    <g id="xtick_4">
     <g id="line2d_4">
      <g>
       <use xlink:href="#m11fe1e13ae" x="557.664973" y="244.078125" style="stroke: #000000; stroke-width: 0.8"/>
      </g>
     </g>
     <g id="text_4">
      <!-- 150 -->
      <g transform="translate(548.121223 258.676562) scale(0.1 -0.1)">
       <use xlink:href="#DejaVuSans-31"/>
       <use xlink:href="#DejaVuSans-35" transform="translate(63.623047 0)"/>
       <use xlink:href="#DejaVuSans-30" transform="translate(127.246094 0)"/>
      </g>
     </g>
    </g>
    <g id="xtick_5">
     <g id="line2d_5">
      <g>
       <use xlink:href="#m11fe1e13ae" x="716.809358" y="244.078125" style="stroke: #000000; stroke-width: 0.8"/>
      </g>
     </g>
     <g id="text_5">
      <!-- 200 -->
      <g transform="translate(707.265608 258.676562) scale(0.1 -0.1)">
       <defs>
        <path id="DejaVuSans-32" d="M 1228 531 
L 3431 531 
L 3431 0 
L 469 0 
L 469 531 
Q 828 903 1448 1529 
Q 2069 2156 2228 2338 
Q 2531 2678 2651 2914 
Q 2772 3150 2772 3378 
Q 2772 3750 2511 3984 
Q 2250 4219 1831 4219 
Q 1534 4219 1204 4116 
Q 875 4013 500 3803 
L 500 4441 
Q 881 4594 1212 4672 
Q 1544 4750 1819 4750 
Q 2544 4750 2975 4387 
Q 3406 4025 3406 3419 
Q 3406 3131 3298 2873 
Q 3191 2616 2906 2266 
Q 2828 2175 2409 1742 
Q 1991 1309 1228 531 
z
" transform="scale(0.015625)"/>
       </defs>
       <use xlink:href="#DejaVuSans-32"/>
       <use xlink:href="#DejaVuSans-30" transform="translate(63.623047 0)"/>
       <use xlink:href="#DejaVuSans-30" transform="translate(127.246094 0)"/>
      </g>
     </g>
    </g>
    <g id="xtick_6">
     <g id="line2d_6">
      <g>
       <use xlink:href="#m11fe1e13ae" x="875.953743" y="244.078125" style="stroke: #000000; stroke-width: 0.8"/>
      </g>
     </g>
     <g id="text_6">
      <!-- 250 -->
      <g transform="translate(866.409993 258.676562) scale(0.1 -0.1)">
       <use xlink:href="#DejaVuSans-32"/>
       <use xlink:href="#DejaVuSans-35" transform="translate(63.623047 0)"/>
       <use xlink:href="#DejaVuSans-30" transform="translate(127.246094 0)"/>
      </g>
     </g>
    </g>
    <g id="text_7">
     <!-- intensity -->
     <g transform="translate(464.373437 272.354687) scale(0.1 -0.1)">
      <defs>
       <path id="DejaVuSans-69" d="M 603 3500 
L 1178 3500 
L 1178 0 
L 603 0 
L 603 3500 
z
M 603 4863 
L 1178 4863 
L 1178 4134 
L 603 4134 
L 603 4863 
z
" transform="scale(0.015625)"/>
       <path id="DejaVuSans-6e" d="M 3513 2113 
L 3513 0 
L 2938 0 
L 2938 2094 
Q 2938 2591 2744 2837 
Q 2550 3084 2163 3084 
Q 1697 3084 1428 2787 
Q 1159 2491 1159 1978 
L 1159 0 
L 581 0 
L 581 3500 
L 1159 3500 
L 1159 2956 
Q 1366 3272 1645 3428 
Q 1925 3584 2291 3584 
Q 2894 3584 3203 3211 
Q 3513 2838 3513 2113 
z
" transform="scale(0.015625)"/>
       <path id="DejaVuSans-74" d="M 1172 4494 
L 1172 3500 
L 2356 3500 
L 2356 3053 
L 1172 3053 
L 1172 1153 
Q 1172 725 1289 603 
Q 1406 481 1766 481 
L 2356 481 
L 2356 0 
L 1766 0 
Q 1100 0 847 248 
Q 594 497 594 1153 
L 594 3053 
L 172 3053 
L 172 3500 
L 594 3500 
L 594 4494 
L 1172 4494 
z
" transform="scale(0.015625)"/>
       <path id="DejaVuSans-65" d="M 3597 1894 
L 3597 1613 
L 953 1613 
Q 991 1019 1311 708 
Q 1631 397 2203 397 
Q 2534 397 2845 478 
Q 3156 559 3463 722 
L 3463 178 
Q 3153 47 2828 -22 
Q 2503 -91 2169 -91 
Q 1331 -91 842 396 
Q 353 884 353 1716 
Q 353 2575 817 3079 
Q 1281 3584 2069 3584 
Q 2775 3584 3186 3129 
Q 3597 2675 3597 1894 
z
M 3022 2063 
Q 3016 2534 2758 2815 
Q 2500 3097 2075 3097 
Q 1594 3097 1305 2825 
Q 1016 2553 972 2059 
L 3022 2063 
z
" transform="scale(0.015625)"/>
       <path id="DejaVuSans-73" d="M 2834 3397 
L 2834 2853 
Q 2591 2978 2328 3040 
Q 2066 3103 1784 3103 
Q 1356 3103 1142 2972 
Q 928 2841 928 2578 
Q 928 2378 1081 2264 
Q 1234 2150 1697 2047 
L 1894 2003 
Q 2506 1872 2764 1633 
Q 3022 1394 3022 966 
Q 3022 478 2636 193 
Q 2250 -91 1575 -91 
Q 1294 -91 989 -36 
Q 684 19 347 128 
L 347 722 
Q 666 556 975 473 
Q 1284 391 1588 391 
Q 1994 391 2212 530 
Q 2431 669 2431 922 
Q 2431 1156 2273 1281 
Q 2116 1406 1581 1522 
L 1381 1569 
Q 847 1681 609 1914 
Q 372 2147 372 2553 
Q 372 3047 722 3315 
Q 1072 3584 1716 3584 
Q 2034 3584 2315 3537 
Q 2597 3491 2834 3397 
z
" transform="scale(0.015625)"/>
       <path id="DejaVuSans-79" d="M 2059 -325 
Q 1816 -950 1584 -1140 
Q 1353 -1331 966 -1331 
L 506 -1331 
L 506 -850 
L 844 -850 
Q 1081 -850 1212 -737 
Q 1344 -625 1503 -206 
L 1606 56 
L 191 3500 
L 800 3500 
L 1894 763 
L 2988 3500 
L 3597 3500 
L 2059 -325 
z
" transform="scale(0.015625)"/>
      </defs>
      <use xlink:href="#DejaVuSans-69"/>
      <use xlink:href="#DejaVuSans-6e" transform="translate(27.783203 0)"/>
      <use xlink:href="#DejaVuSans-74" transform="translate(91.162109 0)"/>
      <use xlink:href="#DejaVuSans-65" transform="translate(130.371094 0)"/>
      <use xlink:href="#DejaVuSans-6e" transform="translate(191.894531 0)"/>
      <use xlink:href="#DejaVuSans-73" transform="translate(255.273438 0)"/>
      <use xlink:href="#DejaVuSans-69" transform="translate(307.373047 0)"/>
      <use xlink:href="#DejaVuSans-74" transform="translate(335.15625 0)"/>
      <use xlink:href="#DejaVuSans-79" transform="translate(374.365234 0)"/>
     </g>
    </g>
   </g>
   <g id="matplotlib.axis_2">
    <g id="ytick_1">
     <g id="line2d_7">
      <defs>
       <path id="maab5c69661" d="M 0 0 
L -3.5 0 
" style="stroke: #000000; stroke-width: 0.8"/>
      </defs>
      <g>
       <use xlink:href="#maab5c69661" x="39.65" y="244.078125" style="stroke: #000000; stroke-width: 0.8"/>
      </g>
     </g>
     <g id="text_8">
      <!-- 0 -->
      <g transform="translate(26.2875 247.877344) scale(0.1 -0.1)">
       <use xlink:href="#DejaVuSans-30"/>
      </g>
     </g>
    </g>
    <g id="ytick_2">
     <g id="line2d_8">
      <g>
       <use xlink:href="#maab5c69661" x="39.65" y="199.726125" style="stroke: #000000; stroke-width: 0.8"/>
      </g>
     </g>
     <g id="text_9">
      <!-- 1000 -->
      <g transform="translate(7.2 203.525344) scale(0.1 -0.1)">
       <use xlink:href="#DejaVuSans-31"/>
       <use xlink:href="#DejaVuSans-30" transform="translate(63.623047 0)"/>
       <use xlink:href="#DejaVuSans-30" transform="translate(127.246094 0)"/>
       <use xlink:href="#DejaVuSans-30" transform="translate(190.869141 0)"/>
      </g>
     </g>
    </g>
    <g id="ytick_3">
     <g id="line2d_9">
      <g>
       <use xlink:href="#maab5c69661" x="39.65" y="155.374125" style="stroke: #000000; stroke-width: 0.8"/>
      </g>
     </g>
     <g id="text_10">
      <!-- 2000 -->
      <g transform="translate(7.2 159.173344) scale(0.1 -0.1)">
       <use xlink:href="#DejaVuSans-32"/>
       <use xlink:href="#DejaVuSans-30" transform="translate(63.623047 0)"/>
       <use xlink:href="#DejaVuSans-30" transform="translate(127.246094 0)"/>
       <use xlink:href="#DejaVuSans-30" transform="translate(190.869141 0)"/>
      </g>
     </g>
    </g>
    <g id="ytick_4">
     <g id="line2d_10">
      <g>
       <use xlink:href="#maab5c69661" x="39.65" y="111.022125" style="stroke: #000000; stroke-width: 0.8"/>
      </g>
     </g>
     <g id="text_11">
      <!-- 3000 -->
      <g transform="translate(7.2 114.821344) scale(0.1 -0.1)">
       <defs>
        <path id="DejaVuSans-33" d="M 2597 2516 
Q 3050 2419 3304 2112 
Q 3559 1806 3559 1356 
Q 3559 666 3084 287 
Q 2609 -91 1734 -91 
Q 1441 -91 1130 -33 
Q 819 25 488 141 
L 488 750 
Q 750 597 1062 519 
Q 1375 441 1716 441 
Q 2309 441 2620 675 
Q 2931 909 2931 1356 
Q 2931 1769 2642 2001 
Q 2353 2234 1838 2234 
L 1294 2234 
L 1294 2753 
L 1863 2753 
Q 2328 2753 2575 2939 
Q 2822 3125 2822 3475 
Q 2822 3834 2567 4026 
Q 2313 4219 1838 4219 
Q 1578 4219 1281 4162 
Q 984 4106 628 3988 
L 628 4550 
Q 988 4650 1302 4700 
Q 1616 4750 1894 4750 
Q 2613 4750 3031 4423 
Q 3450 4097 3450 3541 
Q 3450 3153 3228 2886 
Q 3006 2619 2597 2516 
z
" transform="scale(0.015625)"/>
       </defs>
       <use xlink:href="#DejaVuSans-33"/>
       <use xlink:href="#DejaVuSans-30" transform="translate(63.623047 0)"/>
       <use xlink:href="#DejaVuSans-30" transform="translate(127.246094 0)"/>
       <use xlink:href="#DejaVuSans-30" transform="translate(190.869141 0)"/>
      </g>
     </g>
    </g>
    <g id="ytick_5">
     <g id="line2d_11">
      <g>
       <use xlink:href="#maab5c69661" x="39.65" y="66.670125" style="stroke: #000000; stroke-width: 0.8"/>
      </g>
     </g>
     <g id="text_12">
      <!-- 4000 -->
      <g transform="translate(7.2 70.469344) scale(0.1 -0.1)">
       <defs>
        <path id="DejaVuSans-34" d="M 2419 4116 
L 825 1625 
L 2419 1625 
L 2419 4116 
z
M 2253 4666 
L 3047 4666 
L 3047 1625 
L 3713 1625 
L 3713 1100 
L 3047 1100 
L 3047 0 
L 2419 0 
L 2419 1100 
L 313 1100 
L 313 1709 
L 2253 4666 
z
" transform="scale(0.015625)"/>
       </defs>
       <use xlink:href="#DejaVuSans-34"/>
       <use xlink:href="#DejaVuSans-30" transform="translate(63.623047 0)"/>
       <use xlink:href="#DejaVuSans-30" transform="translate(127.246094 0)"/>
       <use xlink:href="#DejaVuSans-30" transform="translate(190.869141 0)"/>
      </g>
     </g>
    </g>
    <g id="ytick_6">
     <g id="line2d_12">
      <g>
       <use xlink:href="#maab5c69661" x="39.65" y="22.318125" style="stroke: #000000; stroke-width: 0.8"/>
      </g>
     </g>
     <g id="text_13">
      <!-- 5000 -->
      <g transform="translate(7.2 26.117344) scale(0.1 -0.1)">
       <use xlink:href="#DejaVuSans-35"/>
       <use xlink:href="#DejaVuSans-30" transform="translate(63.623047 0)"/>
       <use xlink:href="#DejaVuSans-30" transform="translate(127.246094 0)"/>
       <use xlink:href="#DejaVuSans-30" transform="translate(190.869141 0)"/>
      </g>
     </g>
    </g>
   </g>
   <g id="line2d_13">
    <path d="M 83.194637 -1 
L 83.414706 86.67671 
L 86.597594 82.64554 
L 89.780481 81.465458 
L 92.963369 81.414523 
L 96.146257 82.342114 
L 99.329144 83.71668 
L 102.512032 85.476867 
L 105.69492 87.638637 
L 112.060695 92.391881 
L 131.158021 108.710721 
L 140.706684 116.385079 
L 147.07246 121.072812 
L 150.255348 123.33314 
L 159.804011 129.463516 
L 162.986898 131.384273 
L 172.535561 136.601881 
L 178.901337 139.751512 
L 185.267112 142.676622 
L 201.181551 149.069092 
L 210.730214 152.379336 
L 217.095989 154.414233 
L 226.644652 157.260536 
L 239.376203 160.743868 
L 252.107754 163.758321 
L 261.656417 165.741751 
L 280.753743 169.32435 
L 353.96016 180.755553 
L 382.60615 186.085681 
L 395.337701 188.780444 
L 414.435027 193.156653 
L 443.081016 200.072111 
L 449.446791 201.661349 
L 474.909893 207.799629 
L 484.458556 209.943955 
L 494.007219 211.966552 
L 519.470321 216.683702 
L 532.201872 218.719755 
L 541.750535 220.189497 
L 560.847861 222.908104 
L 570.396524 224.105016 
L 579.945187 225.28906 
L 611.774064 228.799672 
L 614.956952 229.02958 
L 618.13984 229.395274 
L 621.322727 229.597117 
L 624.505615 229.995163 
L 630.87139 230.510348 
L 634.054278 230.891582 
L 637.237166 231.092045 
L 640.420053 231.433945 
L 643.602941 231.6127 
L 646.785829 231.977177 
L 649.968717 232.133563 
L 653.151604 232.523314 
L 659.51738 232.947838 
L 662.700267 233.318576 
L 665.883155 233.433597 
L 669.066043 233.822561 
L 672.24893 233.897474 
L 675.431818 234.278072 
L 678.614706 234.320011 
L 681.797594 234.556802 
L 684.980481 234.957278 
L 688.163369 235.004669 
L 691.346257 235.393615 
L 694.529144 235.41719 
L 697.712032 235.789205 
L 700.89492 235.794114 
L 704.077807 236.171808 
L 707.260695 236.139239 
L 710.443583 236.364229 
L 713.626471 236.787462 
L 716.809358 236.727241 
L 719.992246 237.152818 
L 723.175134 237.032122 
L 726.358021 237.489907 
L 729.540909 237.329569 
L 732.723797 237.507351 
L 735.906684 237.983666 
L 739.089572 237.832371 
L 742.27246 238.295617 
L 745.455348 238.113805 
L 748.638235 238.570251 
L 751.821123 238.36593 
L 755.004011 238.500295 
L 758.186898 239.001697 
L 761.369786 238.716081 
L 764.552674 239.196475 
L 767.735561 238.921389 
L 770.918449 239.519147 
L 774.101337 239.159214 
L 777.284225 239.767812 
L 780.467112 239.370278 
L 783.65 239.531934 
L 786.832888 240.064871 
L 790.015775 239.599934 
L 793.198663 240.245558 
L 796.381551 239.800185 
L 799.564439 240.401666 
L 802.747326 239.900328 
L 805.930214 239.962045 
L 809.113102 240.626447 
L 812.295989 239.971167 
L 815.478877 240.648386 
L 818.661765 239.915828 
L 821.844652 240.582587 
L 825.02754 239.845342 
L 828.210428 240.582065 
L 831.393316 239.723038 
L 834.576203 239.744633 
L 837.759091 240.470857 
L 840.941979 239.453752 
L 844.124866 240.152388 
L 847.307754 238.992658 
L 850.490642 239.743833 
L 853.673529 238.379422 
L 856.856417 238.459365 
L 860.039305 239.092171 
L 863.222193 237.785424 
L 866.40508 238.218674 
L 869.587968 236.751376 
L 872.770856 236.405903 
L 875.953743 232.533814 
L 879.136631 232.738026 
L 882.319519 208.359221 
L 885.502406 233.682431 
L 888.685294 236.129539 
L 891.868182 222.228846 
L 891.868182 222.228846 
" clip-path="url(#p1d5c96435a)" style="fill: none; stroke: #0000ff; stroke-width: 1.5; stroke-linecap: square"/>
   </g>
   <g id="line2d_14">
    <path d="M 80.231818 242.22735 
L 83.414706 242.940977 
L 89.780481 241.970342 
L 92.963369 241.243323 
L 96.146257 240.195749 
L 102.512032 237.275091 
L 108.877807 234.277237 
L 118.426471 230.251509 
L 124.792246 227.902188 
L 131.158021 225.82477 
L 137.523797 224.031255 
L 143.889572 222.530562 
L 150.255348 221.242327 
L 159.804011 219.719115 
L 166.169786 218.929336 
L 175.718449 217.967076 
L 182.084225 217.497406 
L 194.815775 216.776738 
L 213.913102 215.808335 
L 236.193316 214.412969 
L 248.924866 213.424415 
L 258.473529 212.556232 
L 268.022193 211.504126 
L 283.936631 209.330891 
L 293.485294 207.813346 
L 306.216845 205.535923 
L 315.765508 203.625089 
L 338.045722 198.562302 
L 385.789037 186.856352 
L 395.337701 184.639737 
L 408.069251 181.961963 
L 417.617914 180.272586 
L 423.98369 179.41462 
L 430.349465 178.759794 
L 436.715241 178.28078 
L 443.081016 177.975773 
L 452.629679 178.059599 
L 465.36123 178.702974 
L 481.275668 179.542516 
L 487.641444 179.680759 
L 503.555882 179.496968 
L 532.201872 177.825528 
L 538.567647 177.32993 
L 554.482086 176.032125 
L 579.945187 174.228116 
L 599.042513 172.749979 
L 608.591176 171.946467 
L 618.13984 171.147411 
L 634.054278 169.723497 
L 691.346257 163.261434 
L 707.260695 161.863962 
L 713.626471 161.474241 
L 726.358021 161.199938 
L 735.906684 161.549388 
L 742.27246 162.107665 
L 745.455348 162.463488 
L 751.821123 163.479778 
L 755.004011 164.0971 
L 758.186898 164.838155 
L 764.552674 166.685888 
L 770.918449 168.838541 
L 777.284225 171.291978 
L 783.65 173.907176 
L 793.198663 178.344135 
L 805.930214 184.603105 
L 828.210428 195.909796 
L 837.759091 200.232389 
L 847.307754 204.189781 
L 853.673529 206.471876 
L 856.856417 207.480343 
L 863.222193 209.021962 
L 869.587968 210.188124 
L 872.770856 210.612836 
L 875.953743 210.715714 
L 879.136631 210.082566 
L 882.319519 208.26336 
L 885.502406 204.872971 
L 888.685294 200.66266 
L 891.868182 36.601505 
L 891.868182 36.601505 
" clip-path="url(#p1d5c96435a)" style="fill: none; stroke: #008000; stroke-width: 1.5; stroke-linecap: square"/>
   </g>
   <g id="line2d_15">
    <path d="M 80.231818 221.961777 
L 83.414706 238.190078 
L 86.597594 237.437499 
L 89.780481 235.344251 
L 96.146257 231.431905 
L 99.329144 228.764659 
L 105.69492 224.315428 
L 115.243583 218.532816 
L 121.609358 215.37416 
L 127.975134 212.749244 
L 134.340909 210.556749 
L 140.706684 208.795029 
L 143.889572 208.027266 
L 150.255348 206.80715 
L 156.621123 205.87398 
L 162.986898 205.07177 
L 204.364439 200.768944 
L 220.278877 198.75959 
L 233.010428 196.883412 
L 245.741979 194.799956 
L 258.473529 192.570402 
L 274.387968 189.34394 
L 318.948396 179.451403 
L 331.679947 176.970198 
L 344.411497 174.933509 
L 353.96016 173.790438 
L 363.508824 172.875667 
L 373.057487 172.201031 
L 385.789037 171.432094 
L 404.886364 170.777506 
L 420.800802 170.617212 
L 433.532353 170.768292 
L 443.081016 171.184476 
L 468.544118 172.567433 
L 481.275668 173.072078 
L 497.190107 173.343339 
L 503.555882 173.348661 
L 516.287433 173.016259 
L 525.836096 172.696846 
L 567.213636 170.731909 
L 586.310963 170.328848 
L 595.859626 170.329579 
L 605.408289 170.596032 
L 614.956952 171.096579 
L 627.688503 172.087228 
L 637.237166 173.189298 
L 643.602941 174.087908 
L 656.334492 176.408148 
L 669.066043 179.134507 
L 681.797594 182.387395 
L 694.529144 186.074236 
L 704.077807 189.039583 
L 729.540909 197.200411 
L 745.455348 202.269024 
L 758.186898 206.093109 
L 770.918449 209.711743 
L 780.467112 212.140519 
L 796.381551 215.723757 
L 805.930214 217.551447 
L 815.478877 219.225575 
L 825.02754 220.576465 
L 840.941979 223.056494 
L 847.307754 223.818313 
L 863.222193 225.020057 
L 869.587968 223.689457 
L 872.770856 222.499339 
L 875.953743 222.687574 
L 879.136631 218.455998 
L 882.319519 217.495698 
L 885.502406 191.129644 
L 888.685294 216.324347 
L 891.868182 162.161768 
L 891.868182 162.161768 
" clip-path="url(#p1d5c96435a)" style="fill: none; stroke: #ff0000; stroke-width: 1.5; stroke-linecap: square"/>
   </g>
   <g id="patch_3">
    <path d="M 39.65 244.078125 
L 39.65 22.318125 
" style="fill: none; stroke: #000000; stroke-width: 0.8; stroke-linejoin: miter; stroke-linecap: square"/>
   </g>
   <g id="patch_4">
    <path d="M 932.45 244.078125 
L 932.45 22.318125 
" style="fill: none; stroke: #000000; stroke-width: 0.8; stroke-linejoin: miter; stroke-linecap: square"/>
   </g>
   <g id="patch_5">
    <path d="M 39.65 244.078125 
L 932.45 244.078125 
" style="fill: none; stroke: #000000; stroke-width: 0.8; stroke-linejoin: miter; stroke-linecap: square"/>
   </g>
   <g id="patch_6">
    <path d="M 39.65 22.318125 
L 932.45 22.318125 
" style="fill: none; stroke: #000000; stroke-width: 0.8; stroke-linejoin: miter; stroke-linecap: square"/>
   </g>
   <g id="text_14">
    <!-- Color distributions across non-duplicated images (mean) -->
    <g transform="translate(315.76625 16.318125) scale(0.12 -0.12)">
     <defs>
      <path id="DejaVuSans-43" d="M 4122 4306 
L 4122 3641 
Q 3803 3938 3442 4084 
Q 3081 4231 2675 4231 
Q 1875 4231 1450 3742 
Q 1025 3253 1025 2328 
Q 1025 1406 1450 917 
Q 1875 428 2675 428 
Q 3081 428 3442 575 
Q 3803 722 4122 1019 
L 4122 359 
Q 3791 134 3420 21 
Q 3050 -91 2638 -91 
Q 1578 -91 968 557 
Q 359 1206 359 2328 
Q 359 3453 968 4101 
Q 1578 4750 2638 4750 
Q 3056 4750 3426 4639 
Q 3797 4528 4122 4306 
z
" transform="scale(0.015625)"/>
      <path id="DejaVuSans-6f" d="M 1959 3097 
Q 1497 3097 1228 2736 
Q 959 2375 959 1747 
Q 959 1119 1226 758 
Q 1494 397 1959 397 
Q 2419 397 2687 759 
Q 2956 1122 2956 1747 
Q 2956 2369 2687 2733 
Q 2419 3097 1959 3097 
z
M 1959 3584 
Q 2709 3584 3137 3096 
Q 3566 2609 3566 1747 
Q 3566 888 3137 398 
Q 2709 -91 1959 -91 
Q 1206 -91 779 398 
Q 353 888 353 1747 
Q 353 2609 779 3096 
Q 1206 3584 1959 3584 
z
" transform="scale(0.015625)"/>
      <path id="DejaVuSans-6c" d="M 603 4863 
L 1178 4863 
L 1178 0 
L 603 0 
L 603 4863 
z
" transform="scale(0.015625)"/>
      <path id="DejaVuSans-72" d="M 2631 2963 
Q 2534 3019 2420 3045 
Q 2306 3072 2169 3072 
Q 1681 3072 1420 2755 
Q 1159 2438 1159 1844 
L 1159 0 
L 581 0 
L 581 3500 
L 1159 3500 
L 1159 2956 
Q 1341 3275 1631 3429 
Q 1922 3584 2338 3584 
Q 2397 3584 2469 3576 
Q 2541 3569 2628 3553 
L 2631 2963 
z
" transform="scale(0.015625)"/>
      <path id="DejaVuSans-20" transform="scale(0.015625)"/>
      <path id="DejaVuSans-64" d="M 2906 2969 
L 2906 4863 
L 3481 4863 
L 3481 0 
L 2906 0 
L 2906 525 
Q 2725 213 2448 61 
Q 2172 -91 1784 -91 
Q 1150 -91 751 415 
Q 353 922 353 1747 
Q 353 2572 751 3078 
Q 1150 3584 1784 3584 
Q 2172 3584 2448 3432 
Q 2725 3281 2906 2969 
z
M 947 1747 
Q 947 1113 1208 752 
Q 1469 391 1925 391 
Q 2381 391 2643 752 
Q 2906 1113 2906 1747 
Q 2906 2381 2643 2742 
Q 2381 3103 1925 3103 
Q 1469 3103 1208 2742 
Q 947 2381 947 1747 
z
" transform="scale(0.015625)"/>
      <path id="DejaVuSans-62" d="M 3116 1747 
Q 3116 2381 2855 2742 
Q 2594 3103 2138 3103 
Q 1681 3103 1420 2742 
Q 1159 2381 1159 1747 
Q 1159 1113 1420 752 
Q 1681 391 2138 391 
Q 2594 391 2855 752 
Q 3116 1113 3116 1747 
z
M 1159 2969 
Q 1341 3281 1617 3432 
Q 1894 3584 2278 3584 
Q 2916 3584 3314 3078 
Q 3713 2572 3713 1747 
Q 3713 922 3314 415 
Q 2916 -91 2278 -91 
Q 1894 -91 1617 61 
Q 1341 213 1159 525 
L 1159 0 
L 581 0 
L 581 4863 
L 1159 4863 
L 1159 2969 
z
" transform="scale(0.015625)"/>
      <path id="DejaVuSans-75" d="M 544 1381 
L 544 3500 
L 1119 3500 
L 1119 1403 
Q 1119 906 1312 657 
Q 1506 409 1894 409 
Q 2359 409 2629 706 
Q 2900 1003 2900 1516 
L 2900 3500 
L 3475 3500 
L 3475 0 
L 2900 0 
L 2900 538 
Q 2691 219 2414 64 
Q 2138 -91 1772 -91 
Q 1169 -91 856 284 
Q 544 659 544 1381 
z
M 1991 3584 
L 1991 3584 
z
" transform="scale(0.015625)"/>
      <path id="DejaVuSans-61" d="M 2194 1759 
Q 1497 1759 1228 1600 
Q 959 1441 959 1056 
Q 959 750 1161 570 
Q 1363 391 1709 391 
Q 2188 391 2477 730 
Q 2766 1069 2766 1631 
L 2766 1759 
L 2194 1759 
z
M 3341 1997 
L 3341 0 
L 2766 0 
L 2766 531 
Q 2569 213 2275 61 
Q 1981 -91 1556 -91 
Q 1019 -91 701 211 
Q 384 513 384 1019 
Q 384 1609 779 1909 
Q 1175 2209 1959 2209 
L 2766 2209 
L 2766 2266 
Q 2766 2663 2505 2880 
Q 2244 3097 1772 3097 
Q 1472 3097 1187 3025 
Q 903 2953 641 2809 
L 641 3341 
Q 956 3463 1253 3523 
Q 1550 3584 1831 3584 
Q 2591 3584 2966 3190 
Q 3341 2797 3341 1997 
z
" transform="scale(0.015625)"/>
      <path id="DejaVuSans-63" d="M 3122 3366 
L 3122 2828 
Q 2878 2963 2633 3030 
Q 2388 3097 2138 3097 
Q 1578 3097 1268 2742 
Q 959 2388 959 1747 
Q 959 1106 1268 751 
Q 1578 397 2138 397 
Q 2388 397 2633 464 
Q 2878 531 3122 666 
L 3122 134 
Q 2881 22 2623 -34 
Q 2366 -91 2075 -91 
Q 1284 -91 818 406 
Q 353 903 353 1747 
Q 353 2603 823 3093 
Q 1294 3584 2113 3584 
Q 2378 3584 2631 3529 
Q 2884 3475 3122 3366 
z
" transform="scale(0.015625)"/>
      <path id="DejaVuSans-2d" d="M 313 2009 
L 1997 2009 
L 1997 1497 
L 313 1497 
L 313 2009 
z
" transform="scale(0.015625)"/>
      <path id="DejaVuSans-70" d="M 1159 525 
L 1159 -1331 
L 581 -1331 
L 581 3500 
L 1159 3500 
L 1159 2969 
Q 1341 3281 1617 3432 
Q 1894 3584 2278 3584 
Q 2916 3584 3314 3078 
Q 3713 2572 3713 1747 
Q 3713 922 3314 415 
Q 2916 -91 2278 -91 
Q 1894 -91 1617 61 
Q 1341 213 1159 525 
z
M 3116 1747 
Q 3116 2381 2855 2742 
Q 2594 3103 2138 3103 
Q 1681 3103 1420 2742 
Q 1159 2381 1159 1747 
Q 1159 1113 1420 752 
Q 1681 391 2138 391 
Q 2594 391 2855 752 
Q 3116 1113 3116 1747 
z
" transform="scale(0.015625)"/>
      <path id="DejaVuSans-6d" d="M 3328 2828 
Q 3544 3216 3844 3400 
Q 4144 3584 4550 3584 
Q 5097 3584 5394 3201 
Q 5691 2819 5691 2113 
L 5691 0 
L 5113 0 
L 5113 2094 
Q 5113 2597 4934 2840 
Q 4756 3084 4391 3084 
Q 3944 3084 3684 2787 
Q 3425 2491 3425 1978 
L 3425 0 
L 2847 0 
L 2847 2094 
Q 2847 2600 2669 2842 
Q 2491 3084 2119 3084 
Q 1678 3084 1418 2786 
Q 1159 2488 1159 1978 
L 1159 0 
L 581 0 
L 581 3500 
L 1159 3500 
L 1159 2956 
Q 1356 3278 1631 3431 
Q 1906 3584 2284 3584 
Q 2666 3584 2933 3390 
Q 3200 3197 3328 2828 
z
" transform="scale(0.015625)"/>
      <path id="DejaVuSans-67" d="M 2906 1791 
Q 2906 2416 2648 2759 
Q 2391 3103 1925 3103 
Q 1463 3103 1205 2759 
Q 947 2416 947 1791 
Q 947 1169 1205 825 
Q 1463 481 1925 481 
Q 2391 481 2648 825 
Q 2906 1169 2906 1791 
z
M 3481 434 
Q 3481 -459 3084 -895 
Q 2688 -1331 1869 -1331 
Q 1566 -1331 1297 -1286 
Q 1028 -1241 775 -1147 
L 775 -588 
Q 1028 -725 1275 -790 
Q 1522 -856 1778 -856 
Q 2344 -856 2625 -561 
Q 2906 -266 2906 331 
L 2906 616 
Q 2728 306 2450 153 
Q 2172 0 1784 0 
Q 1141 0 747 490 
Q 353 981 353 1791 
Q 353 2603 747 3093 
Q 1141 3584 1784 3584 
Q 2172 3584 2450 3431 
Q 2728 3278 2906 2969 
L 2906 3500 
L 3481 3500 
L 3481 434 
z
" transform="scale(0.015625)"/>
      <path id="DejaVuSans-28" d="M 1984 4856 
Q 1566 4138 1362 3434 
Q 1159 2731 1159 2009 
Q 1159 1288 1364 580 
Q 1569 -128 1984 -844 
L 1484 -844 
Q 1016 -109 783 600 
Q 550 1309 550 2009 
Q 550 2706 781 3412 
Q 1013 4119 1484 4856 
L 1984 4856 
z
" transform="scale(0.015625)"/>
      <path id="DejaVuSans-29" d="M 513 4856 
L 1013 4856 
Q 1481 4119 1714 3412 
Q 1947 2706 1947 2009 
Q 1947 1309 1714 600 
Q 1481 -109 1013 -844 
L 513 -844 
Q 928 -128 1133 580 
Q 1338 1288 1338 2009 
Q 1338 2731 1133 3434 
Q 928 4138 513 4856 
z
" transform="scale(0.015625)"/>
     </defs>
     <use xlink:href="#DejaVuSans-43"/>
     <use xlink:href="#DejaVuSans-6f" transform="translate(69.824219 0)"/>
     <use xlink:href="#DejaVuSans-6c" transform="translate(131.005859 0)"/>
     <use xlink:href="#DejaVuSans-6f" transform="translate(158.789062 0)"/>
     <use xlink:href="#DejaVuSans-72" transform="translate(219.970703 0)"/>
     <use xlink:href="#DejaVuSans-20" transform="translate(261.083984 0)"/>
     <use xlink:href="#DejaVuSans-64" transform="translate(292.871094 0)"/>
     <use xlink:href="#DejaVuSans-69" transform="translate(356.347656 0)"/>
     <use xlink:href="#DejaVuSans-73" transform="translate(384.130859 0)"/>
     <use xlink:href="#DejaVuSans-74" transform="translate(436.230469 0)"/>
     <use xlink:href="#DejaVuSans-72" transform="translate(475.439453 0)"/>
     <use xlink:href="#DejaVuSans-69" transform="translate(516.552734 0)"/>
     <use xlink:href="#DejaVuSans-62" transform="translate(544.335938 0)"/>
     <use xlink:href="#DejaVuSans-75" transform="translate(607.8125 0)"/>
     <use xlink:href="#DejaVuSans-74" transform="translate(671.191406 0)"/>
     <use xlink:href="#DejaVuSans-69" transform="translate(710.400391 0)"/>
     <use xlink:href="#DejaVuSans-6f" transform="translate(738.183594 0)"/>
     <use xlink:href="#DejaVuSans-6e" transform="translate(799.365234 0)"/>
     <use xlink:href="#DejaVuSans-73" transform="translate(862.744141 0)"/>
     <use xlink:href="#DejaVuSans-20" transform="translate(914.84375 0)"/>
     <use xlink:href="#DejaVuSans-61" transform="translate(946.630859 0)"/>
     <use xlink:href="#DejaVuSans-63" transform="translate(1007.910156 0)"/>
     <use xlink:href="#DejaVuSans-72" transform="translate(1062.890625 0)"/>
     <use xlink:href="#DejaVuSans-6f" transform="translate(1101.753906 0)"/>
     <use xlink:href="#DejaVuSans-73" transform="translate(1162.935547 0)"/>
     <use xlink:href="#DejaVuSans-73" transform="translate(1215.035156 0)"/>
     <use xlink:href="#DejaVuSans-20" transform="translate(1267.134766 0)"/>
     <use xlink:href="#DejaVuSans-6e" transform="translate(1298.921875 0)"/>
     <use xlink:href="#DejaVuSans-6f" transform="translate(1362.300781 0)"/>
     <use xlink:href="#DejaVuSans-6e" transform="translate(1423.482422 0)"/>
     <use xlink:href="#DejaVuSans-2d" transform="translate(1486.861328 0)"/>
     <use xlink:href="#DejaVuSans-64" transform="translate(1522.945312 0)"/>
     <use xlink:href="#DejaVuSans-75" transform="translate(1586.421875 0)"/>
     <use xlink:href="#DejaVuSans-70" transform="translate(1649.800781 0)"/>
     <use xlink:href="#DejaVuSans-6c" transform="translate(1713.277344 0)"/>
     <use xlink:href="#DejaVuSans-69" transform="translate(1741.060547 0)"/>
     <use xlink:href="#DejaVuSans-63" transform="translate(1768.84375 0)"/>
     <use xlink:href="#DejaVuSans-61" transform="translate(1823.824219 0)"/>
     <use xlink:href="#DejaVuSans-74" transform="translate(1885.103516 0)"/>
     <use xlink:href="#DejaVuSans-65" transform="translate(1924.3125 0)"/>
     <use xlink:href="#DejaVuSans-64" transform="translate(1985.835938 0)"/>
     <use xlink:href="#DejaVuSans-20" transform="translate(2049.3125 0)"/>
     <use xlink:href="#DejaVuSans-69" transform="translate(2081.099609 0)"/>
     <use xlink:href="#DejaVuSans-6d" transform="translate(2108.882812 0)"/>
     <use xlink:href="#DejaVuSans-61" transform="translate(2206.294922 0)"/>
     <use xlink:href="#DejaVuSans-67" transform="translate(2267.574219 0)"/>
     <use xlink:href="#DejaVuSans-65" transform="translate(2331.050781 0)"/>
     <use xlink:href="#DejaVuSans-73" transform="translate(2392.574219 0)"/>
     <use xlink:href="#DejaVuSans-20" transform="translate(2444.673828 0)"/>
     <use xlink:href="#DejaVuSans-28" transform="translate(2476.460938 0)"/>
     <use xlink:href="#DejaVuSans-6d" transform="translate(2515.474609 0)"/>
     <use xlink:href="#DejaVuSans-65" transform="translate(2612.886719 0)"/>
     <use xlink:href="#DejaVuSans-61" transform="translate(2674.410156 0)"/>
     <use xlink:href="#DejaVuSans-6e" transform="translate(2735.689453 0)"/>
     <use xlink:href="#DejaVuSans-29" transform="translate(2799.068359 0)"/>
    </g>
   </g>
  </g>
 </g>
 <defs>
  <clipPath id="p1d5c96435a">
   <rect x="39.65" y="22.318125" width="892.8" height="221.76"/>
  </clipPath>
 </defs>
</svg>
